<?xml version="1.0" standalone="no"?>
<!DOCTYPE svg PUBLIC "-//W3C//DTD SVG 20010904//EN"
 "http://www.w3.org/TR/2001/REC-SVG-20010904/DTD/svg10.dtd">
<svg version="1.0" xmlns="http://www.w3.org/2000/svg"
 width="712.000000pt" height="375.000000pt" viewBox="0 0 712.000000 375.000000"
 preserveAspectRatio="xMidYMid meet">

<g transform="translate(0.000000,375.000000) scale(0.100000,-0.100000)"
fill="#000000" stroke="none">
<path d="M0 1875 l0 -1875 3560 0 3560 0 0 1875 0 1875 -3560 0 -3560 0 0
-1875z m1647 860 c43 -8 112 -26 153 -40 82 -28 232 -105 238 -124 3 -8 -132
-11 -527 -11 -292 0 -531 4 -531 9 0 10 89 70 146 98 146 74 351 100 521 68z
m346 -282 c3 -5 -31 -70 -75 -145 l-80 -138 -449 0 c-247 0 -449 -4 -449 -8 0
-5 167 -300 370 -656 l371 -647 -82 -134 c-45 -74 -85 -133 -89 -130 -5 3 -36
53 -70 113 -34 59 -79 136 -100 172 -21 36 -87 151 -147 255 -61 105 -153 264
-205 355 -398 687 -548 951 -548 960 0 12 1546 15 1553 3z m602 -20 c-6 -17
-59 -109 -270 -468 -260 -443 -325 -554 -408 -697 -51 -87 -96 -158 -102 -158
-5 0 -62 89 -125 198 -62 108 -167 288 -232 400 -65 112 -118 205 -118 208 0
2 72 4 160 4 l160 0 67 -115 c38 -63 73 -115 78 -115 6 0 56 78 113 173 57 95
135 224 174 287 38 63 93 153 121 200 28 47 56 88 61 92 6 4 82 8 170 8 146 0
158 -1 151 -17z m299 -500 c3 -16 17 -91 31 -168 14 -77 35 -186 45 -241 11
-56 20 -105 20 -110 0 -4 2 -5 5 -3 5 5 26 114 80 402 l28 147 34 0 c25 0 33
-4 33 -17 0 -29 -110 -616 -121 -641 -8 -21 -15 -23 -61 -20 -60 3 -49 -22
-94 218 -14 74 -38 205 -54 290 -16 85 -30 158 -30 163 0 4 18 7 39 7 35 0 40
-3 45 -27z m414 -310 l-3 -338 -35 0 -35 0 -3 338 -2 337 40 0 40 0 -2 -337z
m154 35 l3 -303 93 -3 92 -3 0 -35 0 -35 -132 3 -133 3 -3 338 -2 337 40 0 40
0 2 -302z m320 0 l3 -303 92 -3 c79 -2 93 -5 98 -21 3 -10 3 -26 -1 -35 -6
-14 -23 -16 -138 -14 l-131 3 -3 325 c-1 179 0 330 3 337 2 7 20 13 40 13 l35
0 2 -302z m468 300 c1 -17 81 -443 105 -556 23 -112 22 -122 -20 -122 -37 0
-39 4 -60 108 l-7 32 -83 0 -83 0 -7 -47 c-11 -77 -21 -93 -55 -93 -36 0 -38
12 -15 116 12 59 52 265 96 502 l12 62 58 0 c33 0 59 -1 59 -2z m394 -30 c3
-18 10 -60 16 -93 5 -33 16 -116 25 -185 21 -175 26 -200 34 -200 5 0 11 30
15 68 4 37 15 128 26 202 10 74 21 159 25 188 l7 52 38 0 c46 0 38 27 75 -265
37 -289 36 -288 52 -180 7 50 22 164 33 255 11 91 23 171 25 178 2 6 18 12 35
12 37 0 37 14 4 -231 -14 -107 -34 -250 -43 -319 l-17 -125 -43 -3 c-24 -2
-47 0 -52 5 -8 8 -30 140 -51 306 -6 48 -15 87 -20 87 -4 0 -8 -1 -8 -2 0 -16
-52 -368 -56 -380 -4 -14 -16 -18 -54 -18 l-49 0 -10 53 c-5 28 -15 95 -21
147 -7 52 -23 169 -36 260 -32 222 -32 220 11 220 31 0 35 -3 39 -32z m576
-118 l0 -150 80 0 79 0 3 148 3 147 38 3 37 3 -2 -338 -3 -338 -35 0 -35 0 -3
153 -3 152 -79 0 -80 0 0 -156 0 -155 -37 3 -38 3 -3 338 -2 337 40 0 40 0 0
-150z m398 -187 l-3 -338 -35 0 -35 0 -3 338 -2 337 40 0 40 0 -2 -337z m375
323 c3 -8 4 -22 3 -32 -2 -16 -13 -20 -64 -22 l-62 -3 -2 -302 -3 -302 -35 0
-35 0 -3 303 -2 302 -60 0 -60 0 0 35 0 35 159 0 c127 0 160 -3 164 -14z m332
-21 l0 -30 -100 -5 -100 -5 0 -110 0 -110 83 -3 83 -3 -3 -32 -3 -32 -83 -3
-83 -3 3 -117 3 -117 103 -3 103 -3 -3 -32 -3 -32 -140 0 -140 0 -3 325 c-1
179 0 331 3 338 3 10 37 12 142 10 l138 -3 0 -30z m-5714 -2 c9 -16 145 -252
303 -526 158 -275 285 -501 282 -504 -7 -7 -129 61 -201 112 -203 146 -358
351 -411 545 -28 102 -25 400 4 400 4 0 15 -12 23 -27z m1844 -146 c0 -113 -5
-160 -23 -231 -47 -186 -160 -374 -290 -482 -70 -58 -222 -139 -281 -151 l-35
-6 23 39 c22 37 170 289 451 769 67 116 125 214 127 218 3 5 10 4 17 -3 7 -7
11 -60 11 -153z"/>
<path d="M4176 1814 c-3 -11 -12 -59 -21 -109 -8 -49 -20 -108 -25 -130 -20
-83 -19 -85 61 -85 62 0 70 2 66 18 -3 9 -18 82 -33 162 -28 147 -38 177 -48
144z"/>
</g>
</svg>
